# xmcd
#
# Track frame offsets:
#	150
#	24660
#	41590
#	67377
#	88930
#	129890
#	154710
#	179000
#	195472
#	240972
#	265840
#	287370
#
# Disc length: 4068 seconds
#
# Revision: 1
# Processed by: cddbd v1.5.1PL0 Copyright (c) Steve Scherf et al.
# Submitted via: CDex 1.50Beta5
#
DISCID=a30fe20c
DTITLE=44MAGNUM - LIVE and RARE Disc 7
DYEAR=2000
DGENRE=Rock
TTITLE0=I’M ON FIRE
TTITLE1=STREET ROCK’N ROLLER
TTITLE2=I GIVE YOU MY LOVE
TTITLE3=TOO LATE TO HIDE
TTITLE4=YOU LOVE ME,DON’T YOU?
TTITLE5=DIRTY LADY〜YOUR HEART
TTITLE6=WILD BEAST,THE
TTITLE7=NO STANDING STILL
TTITLE8=SATISFACTION
TTITLE9=LOVING YOU
TTITLE10=IT’S TOO BAD
TTITLE11=TOO LATE TO HIDE
EXTD=
EXTT0=
EXTT1=
EXTT2=
EXTT3=
EXTT4=
EXTT5=
EXTT6=
EXTT7=
EXTT8=
EXTT9=
EXTT10=
EXTT11=
PLAYORDER=
